<?xml version="1.0" standalone="no"?><!DOCTYPE svg PUBLIC "-//W3C//DTD SVG 1.1//EN" "http://www.w3.org/Graphics/SVG/1.1/DTD/svg11.dtd"><svg class="icon" height="512" viewBox="0 0 1024 1024" version="1.1" xmlns="http://www.w3.org/2000/svg"><path d="M512 35c64.41 0 126.875 12.607 185.659 37.471 56.797 24.023 107.813 58.421 151.631 102.239s78.216 94.834 102.239 151.631C976.394 385.125 989 447.59 989 512s-12.606 126.875-37.471 185.659c-24.023 56.797-58.421 107.813-102.239 151.631s-94.834 78.216-151.631 102.239C638.875 976.394 576.41 989 512 989s-126.875-12.606-185.659-37.471c-56.797-24.023-107.813-58.421-151.631-102.239-43.818-43.818-78.216-94.834-102.239-151.631C47.607 638.875 35 576.41 35 512s12.607-126.875 37.471-185.659c24.023-56.797 58.421-107.813 102.239-151.631 43.818-43.818 94.834-78.216 151.631-102.239C385.125 47.607 447.59 35 512 35m0-35C229.23 0 0 229.23 0 512s229.23 512 512 512 512-229.23 512-512S794.77 0 512 0z" fill="#13438B" /><path d="M203.156 330.942H438.85v52.556H266.01v111.074h146.292v53.101H266.01v128.954h178.801v53.1H203.156V330.942zM528.256 330.942h64.479L724.94 565.011l41.721 84.524h2.709c-3.25-41.178-8.128-89.402-8.128-132.748V330.942h59.603v398.785h-64.479L624.161 494.572l-41.721-83.441h-2.71c3.251 41.18 8.126 87.235 8.126 130.582v188.014h-59.601V330.942z" fill="#13438B" /></svg>